<svg xmlns="http://www.w3.org/2000/svg" version="1.1" width="379" height="365">
<path d="M 2.878906 117.319336 L 2.878906 110.412109 L 6.729980 110.412109 L 6.729980 111.335938 L 3.738281 111.335938 L 3.738281 117.319336 Z " fill="rgb(0, 0, 0)" fill-opacity="1.000000" />
<path d="M 2.878906 130.319336 L 2.878906 116.300781 L 3.738281 116.300781 L 3.738281 130.319336 Z " fill="rgb(0, 0, 0)" fill-opacity="1.000000" />
<path d="M 2.878906 143.319336 L 2.878906 129.300781 L 3.738281 129.300781 L 3.738281 143.319336 Z " fill="rgb(0, 0, 0)" fill-opacity="1.000000" />
<path d="M 2.878906 156.319336 L 2.878906 142.300781 L 3.738281 142.300781 L 3.738281 156.319336 Z " fill="rgb(0, 0, 0)" fill-opacity="1.000000" />
<path d="M 2.878906 163.335938 L 2.878906 155.300781 L 3.738281 155.300781 L 3.738281 162.412109 L 6.729980 162.412109 L 6.729980 163.335938 Z " fill="rgb(0, 0, 0)" fill-opacity="1.000000" />
<path d="M 100.878906 312.319336 L 100.878906 305.412109 L 104.729980 305.412109 L 104.729980 306.335938 L 101.738281 306.335938 L 101.738281 312.319336 Z " fill="rgb(0, 0, 0)" fill-opacity="1.000000" />
<path d="M 100.878906 325.319336 L 100.878906 311.300781 L 101.738281 311.300781 L 101.738281 325.319336 Z " fill="rgb(0, 0, 0)" fill-opacity="1.000000" />
<path d="M 100.878906 338.319336 L 100.878906 324.300781 L 101.738281 324.300781 L 101.738281 338.319336 Z " fill="rgb(0, 0, 0)" fill-opacity="1.000000" />
<path d="M 100.878906 351.319336 L 100.878906 337.300781 L 101.738281 337.300781 L 101.738281 351.319336 Z " fill="rgb(0, 0, 0)" fill-opacity="1.000000" />
<path d="M 100.878906 358.335938 L 100.878906 350.300781 L 101.738281 350.300781 L 101.738281 357.412109 L 104.729980 357.412109 L 104.729980 358.335938 Z " fill="rgb(0, 0, 0)" fill-opacity="1.000000" />
<path d="M 104.892578 358.335938 L 104.892578 357.412109 L 111.729980 357.412109 L 111.729980 358.335938 Z " fill="rgb(0, 0, 0)" fill-opacity="1.000000" />
<path d="M 111.892578 358.335938 L 111.892578 357.412109 L 118.729980 357.412109 L 118.729980 358.335938 Z " fill="rgb(0, 0, 0)" fill-opacity="1.000000" />
<path d="M 118.892578 358.335938 L 118.892578 357.412109 L 125.729980 357.412109 L 125.729980 358.335938 Z " fill="rgb(0, 0, 0)" fill-opacity="1.000000" />
<path d="M 125.892578 358.335938 L 125.892578 357.412109 L 132.729980 357.412109 L 132.729980 358.335938 Z " fill="rgb(0, 0, 0)" fill-opacity="1.000000" />
<path d="M 132.892578 358.335938 L 132.892578 357.412109 L 139.729980 357.412109 L 139.729980 358.335938 Z " fill="rgb(0, 0, 0)" fill-opacity="1.000000" />
<path d="M 139.892578 358.335938 L 139.892578 357.412109 L 146.729980 357.412109 L 146.729980 358.335938 Z " fill="rgb(0, 0, 0)" fill-opacity="1.000000" />
<path d="M 146.892578 358.335938 L 146.892578 357.412109 L 153.729980 357.412109 L 153.729980 358.335938 Z " fill="rgb(0, 0, 0)" fill-opacity="1.000000" />
<path d="M 153.892578 358.335938 L 153.892578 357.412109 L 160.729980 357.412109 L 160.729980 358.335938 Z " fill="rgb(0, 0, 0)" fill-opacity="1.000000" />
<path d="M 160.892578 358.335938 L 160.892578 357.412109 L 167.729980 357.412109 L 167.729980 358.335938 Z " fill="rgb(0, 0, 0)" fill-opacity="1.000000" />
<path d="M 167.892578 358.335938 L 167.892578 357.412109 L 174.729980 357.412109 L 174.729980 358.335938 Z " fill="rgb(0, 0, 0)" fill-opacity="1.000000" />
<path d="M 174.892578 358.335938 L 174.892578 357.412109 L 181.729980 357.412109 L 181.729980 358.335938 Z " fill="rgb(0, 0, 0)" fill-opacity="1.000000" />
<path d="M 181.892578 358.335938 L 181.892578 357.412109 L 188.729980 357.412109 L 188.729980 358.335938 Z " fill="rgb(0, 0, 0)" fill-opacity="1.000000" />
<path d="M 188.892578 358.335938 L 188.892578 357.412109 L 195.729980 357.412109 L 195.729980 358.335938 Z " fill="rgb(0, 0, 0)" fill-opacity="1.000000" />
<path d="M 195.892578 358.335938 L 195.892578 357.412109 L 202.729980 357.412109 L 202.729980 358.335938 Z " fill="rgb(0, 0, 0)" fill-opacity="1.000000" />
<path d="M 202.892578 358.335938 L 202.892578 357.412109 L 209.729980 357.412109 L 209.729980 358.335938 Z " fill="rgb(0, 0, 0)" fill-opacity="1.000000" />
<path d="M 209.892578 358.335938 L 209.892578 357.412109 L 216.729980 357.412109 L 216.729980 358.335938 Z " fill="rgb(0, 0, 0)" fill-opacity="1.000000" />
<path d="M 216.892578 358.335938 L 216.892578 357.412109 L 219.878906 357.412109 L 219.878906 350.300781 L 220.738281 350.300781 L 220.738281 358.335938 Z " fill="rgb(0, 0, 0)" fill-opacity="1.000000" />
<path d="M 254.878906 358.335938 L 254.878906 350.300781 L 255.738281 350.300781 L 255.738281 357.412109 L 258.729980 357.412109 L 258.729980 358.335938 Z " fill="rgb(0, 0, 0)" fill-opacity="1.000000" />
<path d="M 258.892578 358.335938 L 258.892578 357.412109 L 265.729980 357.412109 L 265.729980 358.335938 Z " fill="rgb(0, 0, 0)" fill-opacity="1.000000" />
<path d="M 265.892578 358.335938 L 265.892578 357.412109 L 272.729980 357.412109 L 272.729980 358.335938 Z " fill="rgb(0, 0, 0)" fill-opacity="1.000000" />
<path d="M 272.892578 358.335938 L 272.892578 357.412109 L 279.729980 357.412109 L 279.729980 358.335938 Z " fill="rgb(0, 0, 0)" fill-opacity="1.000000" />
<path d="M 279.892578 358.335938 L 279.892578 357.412109 L 286.729980 357.412109 L 286.729980 358.335938 Z " fill="rgb(0, 0, 0)" fill-opacity="1.000000" />
<path d="M 286.892578 358.335938 L 286.892578 357.412109 L 293.729980 357.412109 L 293.729980 358.335938 Z " fill="rgb(0, 0, 0)" fill-opacity="1.000000" />
<path d="M 293.892578 358.335938 L 293.892578 357.412109 L 300.729980 357.412109 L 300.729980 358.335938 Z " fill="rgb(0, 0, 0)" fill-opacity="1.000000" />
<path d="M 300.892578 358.335938 L 300.892578 357.412109 L 307.729980 357.412109 L 307.729980 358.335938 Z " fill="rgb(0, 0, 0)" fill-opacity="1.000000" />
<path d="M 307.892578 358.335938 L 307.892578 357.412109 L 314.729980 357.412109 L 314.729980 358.335938 Z " fill="rgb(0, 0, 0)" fill-opacity="1.000000" />
<path d="M 314.892578 358.335938 L 314.892578 357.412109 L 321.729980 357.412109 L 321.729980 358.335938 Z " fill="rgb(0, 0, 0)" fill-opacity="1.000000" />
<path d="M 321.892578 358.335938 L 321.892578 357.412109 L 328.729980 357.412109 L 328.729980 358.335938 Z " fill="rgb(0, 0, 0)" fill-opacity="1.000000" />
<path d="M 328.892578 358.335938 L 328.892578 357.412109 L 335.729980 357.412109 L 335.729980 358.335938 Z " fill="rgb(0, 0, 0)" fill-opacity="1.000000" />
<path d="M 335.892578 358.335938 L 335.892578 357.412109 L 342.729980 357.412109 L 342.729980 358.335938 Z " fill="rgb(0, 0, 0)" fill-opacity="1.000000" />
<path d="M 342.892578 358.335938 L 342.892578 357.412109 L 349.729980 357.412109 L 349.729980 358.335938 Z " fill="rgb(0, 0, 0)" fill-opacity="1.000000" />
<path d="M 349.892578 358.335938 L 349.892578 357.412109 L 356.729980 357.412109 L 356.729980 358.335938 Z " fill="rgb(0, 0, 0)" fill-opacity="1.000000" />
<path d="M 356.892578 358.335938 L 356.892578 357.412109 L 363.729980 357.412109 L 363.729980 358.335938 Z " fill="rgb(0, 0, 0)" fill-opacity="1.000000" />
<path d="M 363.892578 358.335938 L 363.892578 357.412109 L 370.729980 357.412109 L 370.729980 358.335938 Z " fill="rgb(0, 0, 0)" fill-opacity="1.000000" />
<path d="M 370.892578 358.335938 L 370.892578 357.412109 L 373.878906 357.412109 L 373.878906 350.300781 L 374.738281 350.300781 L 374.738281 358.335938 Z " fill="rgb(0, 0, 0)" fill-opacity="1.000000" />
<path d="M 152.763184 334.715332 Q 152.349609 334.935547 151.914551 335.045654 Q 151.479492 335.155762 150.990723 335.155762 Q 149.449219 335.155762 148.597900 334.065430 Q 147.746582 332.975098 147.746582 330.998535 Q 147.746582 329.032715 148.603271 327.934326 Q 149.459961 326.835938 150.990723 326.835938 Q 151.479492 326.835938 151.914551 326.946045 Q 152.349609 327.056152 152.763184 327.276367 L 152.763184 328.388184 Q 152.365723 328.060547 151.909180 327.888672 Q 151.452637 327.716797 150.990723 327.716797 Q 149.932617 327.716797 149.406250 328.533203 Q 148.879883 329.349609 148.879883 330.998535 Q 148.879883 332.642090 149.406250 333.458496 Q 149.932617 334.274902 150.990723 334.274902 Q 151.463379 334.274902 151.917236 334.103027 Q 152.371094 333.931152 152.763184 333.603516 Z " fill="rgb(0, 0, 0)" fill-opacity="1.000000" />
<path d="M 219.878906 351.319336 L 219.878906 337.300781 L 220.738281 337.300781 L 220.738281 351.319336 Z " fill="rgb(0, 0, 0)" fill-opacity="1.000000" />
<path d="M 254.878906 351.319336 L 254.878906 337.300781 L 255.738281 337.300781 L 255.738281 351.319336 Z " fill="rgb(0, 0, 0)" fill-opacity="1.000000" />
<path d="M 373.878906 351.319336 L 373.878906 337.300781 L 374.738281 337.300781 L 374.738281 351.319336 Z " fill="rgb(0, 0, 0)" fill-opacity="1.000000" />
<path d="M 157.770508 331.976074 L 157.442871 331.976074 Q 156.578125 331.976074 156.140381 332.279541 Q 155.702637 332.583008 155.702637 333.184570 Q 155.702637 333.727051 156.030273 334.027832 Q 156.357910 334.328613 156.937988 334.328613 Q 157.754395 334.328613 158.221680 333.761963 Q 158.688965 333.195312 158.694336 332.196289 L 158.694336 331.976074 Z M 159.687988 331.567871 L 159.687988 335.000000 L 158.694336 335.000000 L 158.694336 334.108398 Q 158.377441 334.645508 157.896729 334.900635 Q 157.416016 335.155762 156.728516 335.155762 Q 155.810059 335.155762 155.262207 334.637451 Q 154.714355 334.119141 154.714355 333.249023 Q 154.714355 332.244629 155.388428 331.723633 Q 156.062500 331.202637 157.367676 331.202637 L 158.694336 331.202637 L 158.694336 331.046875 Q 158.688965 330.327148 158.329102 330.002197 Q 157.969238 329.677246 157.179688 329.677246 Q 156.674805 329.677246 156.159180 329.822266 Q 155.643555 329.967285 155.154785 330.246582 L 155.154785 329.258301 Q 155.702637 329.048828 156.204834 328.944092 Q 156.707031 328.839355 157.179688 328.839355 Q 157.926270 328.839355 158.455322 329.059570 Q 158.984375 329.279785 159.312012 329.720215 Q 159.516113 329.988770 159.602051 330.383545 Q 159.687988 330.778320 159.687988 331.567871 Z " fill="rgb(0, 0, 0)" fill-opacity="1.000000" />
<path d="M 167.203613 330.225098 Q 166.886719 329.978027 166.559082 329.865234 Q 166.231445 329.752441 165.839355 329.752441 Q 164.915527 329.752441 164.426758 330.332520 Q 163.937988 330.912598 163.937988 332.008301 L 163.937988 335.000000 L 162.944336 335.000000 L 162.944336 328.984375 L 163.937988 328.984375 L 163.937988 330.160645 Q 164.185059 329.521484 164.697998 329.180420 Q 165.210938 328.839355 165.914551 328.839355 Q 166.279785 328.839355 166.596680 328.930664 Q 166.913574 329.021973 167.203613 329.215332 Z " fill="rgb(0, 0, 0)" fill-opacity="1.000000" />
<path d="M 172.608398 329.752441 L 172.608398 326.642578 L 173.596680 326.642578 L 173.596680 335.000000 L 172.608398 335.000000 L 172.608398 334.242676 Q 172.361328 334.688477 171.950439 334.922119 Q 171.539551 335.155762 171.002441 335.155762 Q 169.912109 335.155762 169.286377 334.309814 Q 168.660645 333.463867 168.660645 331.976074 Q 168.660645 330.509766 169.289062 329.674561 Q 169.917480 328.839355 171.002441 328.839355 Q 171.544922 328.839355 171.958496 329.072998 Q 172.372070 329.306641 172.608398 329.752441 Z M 169.702637 331.997559 Q 169.702637 333.146973 170.067871 333.732422 Q 170.433105 334.317871 171.147461 334.317871 Q 171.861816 334.317871 172.235107 333.727051 Q 172.608398 333.136230 172.608398 331.997559 Q 172.608398 330.853516 172.235107 330.265381 Q 171.861816 329.677246 171.147461 329.677246 Q 170.433105 329.677246 170.067871 330.262695 Q 169.702637 330.848145 169.702637 331.997559 Z " fill="rgb(0, 0, 0)" fill-opacity="1.000000" />
<path d="M 219.878906 338.319336 L 219.878906 324.300781 L 220.738281 324.300781 L 220.738281 338.319336 Z " fill="rgb(0, 0, 0)" fill-opacity="1.000000" />
<path d="M 254.878906 338.319336 L 254.878906 324.300781 L 255.738281 324.300781 L 255.738281 338.319336 Z " fill="rgb(0, 0, 0)" fill-opacity="1.000000" />
<path d="M 295.981934 330.955566 L 295.981934 334.108398 L 297.265625 334.108398 Q 298.210938 334.108398 298.613770 333.778076 Q 299.016602 333.447754 299.016602 332.690430 Q 299.016602 331.691406 298.592285 331.323486 Q 298.167969 330.955566 297.265625 330.955566 Z M 295.981934 327.872559 L 295.981934 330.074707 L 297.244141 330.074707 Q 298.028320 330.074707 298.380127 329.773926 Q 298.731934 329.473145 298.731934 329.016602 Q 298.731934 328.409668 298.385498 328.141113 Q 298.039062 327.872559 297.244141 327.872559 Z M 294.891602 326.980957 L 297.265625 326.980957 Q 298.495605 326.980957 299.161621 327.512695 Q 299.827637 328.044434 299.827637 329.016602 Q 299.827637 329.537598 299.475830 329.961914 Q 299.124023 330.386230 298.420410 330.493652 Q 299.209961 330.611816 299.658447 331.167725 Q 300.106934 331.723633 300.106934 332.797852 Q 300.106934 333.888184 299.392578 334.444092 Q 298.678223 335.000000 297.265625 335.000000 L 294.891602 335.000000 Z " fill="rgb(0, 0, 0)" fill-opacity="1.000000" />
<path d="M 302.047363 332.722656 L 302.047363 328.995117 L 303.035645 328.995117 L 303.035645 332.722656 Q 303.035645 333.533691 303.322998 333.915039 Q 303.610352 334.296387 304.211914 334.296387 Q 304.910156 334.296387 305.280762 333.804932 Q 305.651367 333.313477 305.651367 332.395020 L 305.651367 328.995117 L 306.645020 328.995117 L 306.645020 335.000000 L 305.651367 335.000000 L 305.651367 334.097656 Q 305.388184 334.618652 304.934326 334.887207 Q 304.480469 335.155762 303.873535 335.155762 Q 302.949707 335.155762 302.498535 334.551514 Q 302.047363 333.947266 302.047363 332.722656 Z " fill="rgb(0, 0, 0)" fill-opacity="1.000000" />
<path d="M 311.297852 327.276367 L 311.297852 328.984375 L 313.542969 328.984375 L 313.542969 329.752441 L 311.297852 329.752441 L 311.297852 333.018066 Q 311.297852 333.684082 311.550293 333.947266 Q 311.802734 334.210449 312.431152 334.210449 L 313.542969 334.210449 L 313.542969 335.000000 L 312.334473 335.000000 Q 311.222656 335.000000 310.766113 334.554199 Q 310.309570 334.108398 310.309570 333.018066 L 310.309570 329.752441 L 308.703613 329.752441 L 308.703613 328.984375 L 310.309570 328.984375 L 310.309570 327.276367 Z " fill="rgb(0, 0, 0)" fill-opacity="1.000000" />
<path d="M 318.297852 327.276367 L 318.297852 328.984375 L 320.542969 328.984375 L 320.542969 329.752441 L 318.297852 329.752441 L 318.297852 333.018066 Q 318.297852 333.684082 318.550293 333.947266 Q 318.802734 334.210449 319.431152 334.210449 L 320.542969 334.210449 L 320.542969 335.000000 L 319.334473 335.000000 Q 318.222656 335.000000 317.766113 334.554199 Q 317.309570 334.108398 317.309570 333.018066 L 317.309570 329.752441 L 315.703613 329.752441 L 315.703613 328.984375 L 317.309570 328.984375 L 317.309570 327.276367 Z " fill="rgb(0, 0, 0)" fill-opacity="1.000000" />
<path d="M 325.308594 329.677246 Q 324.556641 329.677246 324.169922 330.262695 Q 323.783203 330.848145 323.783203 331.997559 Q 323.783203 333.141602 324.169922 333.729736 Q 324.556641 334.317871 325.308594 334.317871 Q 326.065918 334.317871 326.452637 333.729736 Q 326.839355 333.141602 326.839355 331.997559 Q 326.839355 330.848145 326.452637 330.262695 Q 326.065918 329.677246 325.308594 329.677246 Z M 325.308594 328.839355 Q 326.560059 328.839355 327.223389 329.650391 Q 327.886719 330.461426 327.886719 331.997559 Q 327.886719 333.539062 327.226074 334.347412 Q 326.565430 335.155762 325.308594 335.155762 Q 324.057129 335.155762 323.396484 334.347412 Q 322.735840 333.539062 322.735840 331.997559 Q 322.735840 330.461426 323.396484 329.650391 Q 324.057129 328.839355 325.308594 328.839355 Z " fill="rgb(0, 0, 0)" fill-opacity="1.000000" />
<path d="M 334.645020 331.272461 L 334.645020 335.000000 L 333.651367 335.000000 L 333.651367 331.272461 Q 333.651367 330.461426 333.366699 330.080078 Q 333.082031 329.698730 332.475098 329.698730 Q 331.782227 329.698730 331.408936 330.190186 Q 331.035645 330.681641 331.035645 331.600098 L 331.035645 335.000000 L 330.047363 335.000000 L 330.047363 328.984375 L 331.035645 328.984375 L 331.035645 329.886719 Q 331.298828 329.371094 331.750000 329.105225 Q 332.201172 328.839355 332.818848 328.839355 Q 333.737305 328.839355 334.191162 329.443604 Q 334.645020 330.047852 334.645020 331.272461 Z " fill="rgb(0, 0, 0)" fill-opacity="1.000000" />
<path d="M 373.878906 338.319336 L 373.878906 324.300781 L 374.738281 324.300781 L 374.738281 338.319336 Z " fill="rgb(0, 0, 0)" fill-opacity="1.000000" />
<path d="M 219.878906 325.319336 L 219.878906 311.300781 L 220.738281 311.300781 L 220.738281 325.319336 Z " fill="rgb(0, 0, 0)" fill-opacity="1.000000" />
<path d="M 254.878906 325.319336 L 254.878906 311.300781 L 255.738281 311.300781 L 255.738281 325.319336 Z " fill="rgb(0, 0, 0)" fill-opacity="1.000000" />
<path d="M 373.878906 325.319336 L 373.878906 311.300781 L 374.738281 311.300781 L 374.738281 325.319336 Z " fill="rgb(0, 0, 0)" fill-opacity="1.000000" />
<path d="M 104.892578 306.335938 L 104.892578 305.412109 L 111.729980 305.412109 L 111.729980 306.335938 Z " fill="rgb(0, 0, 0)" fill-opacity="1.000000" />
<path d="M 111.892578 306.335938 L 111.892578 305.412109 L 118.729980 305.412109 L 118.729980 306.335938 Z " fill="rgb(0, 0, 0)" fill-opacity="1.000000" />
<path d="M 118.892578 306.335938 L 118.892578 305.412109 L 125.729980 305.412109 L 125.729980 306.335938 Z " fill="rgb(0, 0, 0)" fill-opacity="1.000000" />
<path d="M 125.892578 306.335938 L 125.892578 305.412109 L 132.729980 305.412109 L 132.729980 306.335938 Z " fill="rgb(0, 0, 0)" fill-opacity="1.000000" />
<path d="M 132.892578 306.335938 L 132.892578 305.412109 L 139.729980 305.412109 L 139.729980 306.335938 Z " fill="rgb(0, 0, 0)" fill-opacity="1.000000" />
<path d="M 139.892578 306.335938 L 139.892578 305.412109 L 146.729980 305.412109 L 146.729980 306.335938 Z " fill="rgb(0, 0, 0)" fill-opacity="1.000000" />
<path d="M 146.892578 306.335938 L 146.892578 305.412109 L 153.729980 305.412109 L 153.729980 306.335938 Z " fill="rgb(0, 0, 0)" fill-opacity="1.000000" />
<path d="M 153.892578 306.335938 L 153.892578 305.412109 L 160.729980 305.412109 L 160.729980 306.335938 Z " fill="rgb(0, 0, 0)" fill-opacity="1.000000" />
<path d="M 160.892578 306.335938 L 160.892578 305.412109 L 167.729980 305.412109 L 167.729980 306.335938 Z " fill="rgb(0, 0, 0)" fill-opacity="1.000000" />
<path d="M 167.892578 306.335938 L 167.892578 305.412109 L 174.729980 305.412109 L 174.729980 306.335938 Z " fill="rgb(0, 0, 0)" fill-opacity="1.000000" />
<path d="M 174.892578 306.335938 L 174.892578 305.412109 L 181.729980 305.412109 L 181.729980 306.335938 Z " fill="rgb(0, 0, 0)" fill-opacity="1.000000" />
<path d="M 181.892578 306.335938 L 181.892578 305.412109 L 188.729980 305.412109 L 188.729980 306.335938 Z " fill="rgb(0, 0, 0)" fill-opacity="1.000000" />
<path d="M 188.892578 306.335938 L 188.892578 305.412109 L 195.729980 305.412109 L 195.729980 306.335938 Z " fill="rgb(0, 0, 0)" fill-opacity="1.000000" />
<path d="M 195.892578 306.335938 L 195.892578 305.412109 L 202.729980 305.412109 L 202.729980 306.335938 Z " fill="rgb(0, 0, 0)" fill-opacity="1.000000" />
<path d="M 202.892578 306.335938 L 202.892578 305.412109 L 209.729980 305.412109 L 209.729980 306.335938 Z " fill="rgb(0, 0, 0)" fill-opacity="1.000000" />
<path d="M 209.892578 306.335938 L 209.892578 305.412109 L 216.729980 305.412109 L 216.729980 306.335938 Z " fill="rgb(0, 0, 0)" fill-opacity="1.000000" />
<path d="M 219.878906 312.319336 L 219.878906 306.335938 L 216.892578 306.335938 L 216.892578 305.412109 L 220.738281 305.412109 L 220.738281 312.319336 Z " fill="rgb(0, 0, 0)" fill-opacity="1.000000" />
<path d="M 254.878906 312.319336 L 254.878906 305.412109 L 258.729980 305.412109 L 258.729980 306.335938 L 255.738281 306.335938 L 255.738281 312.319336 Z " fill="rgb(0, 0, 0)" fill-opacity="1.000000" />
<path d="M 258.892578 306.335938 L 258.892578 305.412109 L 265.729980 305.412109 L 265.729980 306.335938 Z " fill="rgb(0, 0, 0)" fill-opacity="1.000000" />
<path d="M 265.892578 306.335938 L 265.892578 305.412109 L 272.729980 305.412109 L 272.729980 306.335938 Z " fill="rgb(0, 0, 0)" fill-opacity="1.000000" />
<path d="M 272.892578 306.335938 L 272.892578 305.412109 L 279.729980 305.412109 L 279.729980 306.335938 Z " fill="rgb(0, 0, 0)" fill-opacity="1.000000" />
<path d="M 279.892578 306.335938 L 279.892578 305.412109 L 286.729980 305.412109 L 286.729980 306.335938 Z " fill="rgb(0, 0, 0)" fill-opacity="1.000000" />
<path d="M 286.892578 306.335938 L 286.892578 305.412109 L 293.729980 305.412109 L 293.729980 306.335938 Z " fill="rgb(0, 0, 0)" fill-opacity="1.000000" />
<path d="M 293.892578 306.335938 L 293.892578 305.412109 L 300.729980 305.412109 L 300.729980 306.335938 Z " fill="rgb(0, 0, 0)" fill-opacity="1.000000" />
<path d="M 300.892578 306.335938 L 300.892578 305.412109 L 307.729980 305.412109 L 307.729980 306.335938 Z " fill="rgb(0, 0, 0)" fill-opacity="1.000000" />
<path d="M 307.892578 306.335938 L 307.892578 305.412109 L 314.729980 305.412109 L 314.729980 306.335938 Z " fill="rgb(0, 0, 0)" fill-opacity="1.000000" />
<path d="M 314.892578 306.335938 L 314.892578 305.412109 L 321.729980 305.412109 L 321.729980 306.335938 Z " fill="rgb(0, 0, 0)" fill-opacity="1.000000" />
<path d="M 321.892578 306.335938 L 321.892578 305.412109 L 328.729980 305.412109 L 328.729980 306.335938 Z " fill="rgb(0, 0, 0)" fill-opacity="1.000000" />
<path d="M 328.892578 306.335938 L 328.892578 305.412109 L 335.729980 305.412109 L 335.729980 306.335938 Z " fill="rgb(0, 0, 0)" fill-opacity="1.000000" />
<path d="M 335.892578 306.335938 L 335.892578 305.412109 L 342.729980 305.412109 L 342.729980 306.335938 Z " fill="rgb(0, 0, 0)" fill-opacity="1.000000" />
<path d="M 342.892578 306.335938 L 342.892578 305.412109 L 349.729980 305.412109 L 349.729980 306.335938 Z " fill="rgb(0, 0, 0)" fill-opacity="1.000000" />
<path d="M 349.892578 306.335938 L 349.892578 305.412109 L 356.729980 305.412109 L 356.729980 306.335938 Z " fill="rgb(0, 0, 0)" fill-opacity="1.000000" />
<path d="M 356.892578 306.335938 L 356.892578 305.412109 L 363.729980 305.412109 L 363.729980 306.335938 Z " fill="rgb(0, 0, 0)" fill-opacity="1.000000" />
<path d="M 363.892578 306.335938 L 363.892578 305.412109 L 370.729980 305.412109 L 370.729980 306.335938 Z " fill="rgb(0, 0, 0)" fill-opacity="1.000000" />
<path d="M 373.878906 312.319336 L 373.878906 306.335938 L 370.892578 306.335938 L 370.892578 305.412109 L 374.738281 305.412109 L 374.738281 312.319336 Z " fill="rgb(0, 0, 0)" fill-opacity="1.000000" />
<path d="M 163.878906 286.319336 L 163.878906 279.412109 L 167.729980 279.412109 L 167.729980 280.335938 L 164.738281 280.335938 L 164.738281 286.319336 Z " fill="rgb(0, 0, 0)" fill-opacity="1.000000" />
<path d="M 164.308594 296.418945 L 161.032227 289.866211 L 167.590332 289.866211 Z " fill="rgb(0, 0, 0)" fill-opacity="1.000000" />
<path d="M 318.308594 296.418945 L 315.032227 289.866211 L 321.590332 289.866211 Z " fill="rgb(0, 0, 0)" fill-opacity="1.000000" />
<path d="M 167.892578 280.335938 L 167.892578 279.412109 L 174.729980 279.412109 L 174.729980 280.335938 Z " fill="rgb(0, 0, 0)" fill-opacity="1.000000" />
<path d="M 174.892578 280.335938 L 174.892578 279.412109 L 181.729980 279.412109 L 181.729980 280.335938 Z " fill="rgb(0, 0, 0)" fill-opacity="1.000000" />
<path d="M 181.892578 280.335938 L 181.892578 279.412109 L 188.729980 279.412109 L 188.729980 280.335938 Z " fill="rgb(0, 0, 0)" fill-opacity="1.000000" />
<path d="M 188.892578 280.335938 L 188.892578 279.412109 L 195.729980 279.412109 L 195.729980 280.335938 Z " fill="rgb(0, 0, 0)" fill-opacity="1.000000" />
<path d="M 195.892578 280.335938 L 195.892578 279.412109 L 202.729980 279.412109 L 202.729980 280.335938 Z " fill="rgb(0, 0, 0)" fill-opacity="1.000000" />
<path d="M 202.892578 280.335938 L 202.892578 279.412109 L 209.729980 279.412109 L 209.729980 280.335938 Z " fill="rgb(0, 0, 0)" fill-opacity="1.000000" />
<path d="M 209.892578 280.335938 L 209.892578 279.412109 L 216.729980 279.412109 L 216.729980 280.335938 Z " fill="rgb(0, 0, 0)" fill-opacity="1.000000" />
<path d="M 216.892578 280.335938 L 216.892578 279.412109 L 223.729980 279.412109 L 223.729980 280.335938 Z " fill="rgb(0, 0, 0)" fill-opacity="1.000000" />
<path d="M 223.892578 280.335938 L 223.892578 279.412109 L 230.729980 279.412109 L 230.729980 280.335938 Z " fill="rgb(0, 0, 0)" fill-opacity="1.000000" />
<path d="M 230.892578 280.335938 L 230.892578 279.412109 L 237.729980 279.412109 L 237.729980 280.335938 Z " fill="rgb(0, 0, 0)" fill-opacity="1.000000" />
<path d="M 237.892578 280.335938 L 237.892578 279.412109 L 240.878906 279.412109 L 240.878906 272.300781 L 241.738281 272.300781 L 241.738281 279.412109 L 244.729980 279.412109 L 244.729980 280.335938 Z " fill="rgb(0, 0, 0)" fill-opacity="1.000000" />
<path d="M 244.892578 280.335938 L 244.892578 279.412109 L 251.729980 279.412109 L 251.729980 280.335938 Z " fill="rgb(0, 0, 0)" fill-opacity="1.000000" />
<path d="M 251.892578 280.335938 L 251.892578 279.412109 L 258.729980 279.412109 L 258.729980 280.335938 Z " fill="rgb(0, 0, 0)" fill-opacity="1.000000" />
<path d="M 258.892578 280.335938 L 258.892578 279.412109 L 265.729980 279.412109 L 265.729980 280.335938 Z " fill="rgb(0, 0, 0)" fill-opacity="1.000000" />
<path d="M 265.892578 280.335938 L 265.892578 279.412109 L 272.729980 279.412109 L 272.729980 280.335938 Z " fill="rgb(0, 0, 0)" fill-opacity="1.000000" />
<path d="M 272.892578 280.335938 L 272.892578 279.412109 L 279.729980 279.412109 L 279.729980 280.335938 Z " fill="rgb(0, 0, 0)" fill-opacity="1.000000" />
<path d="M 279.892578 280.335938 L 279.892578 279.412109 L 286.729980 279.412109 L 286.729980 280.335938 Z " fill="rgb(0, 0, 0)" fill-opacity="1.000000" />
<path d="M 286.892578 280.335938 L 286.892578 279.412109 L 293.729980 279.412109 L 293.729980 280.335938 Z " fill="rgb(0, 0, 0)" fill-opacity="1.000000" />
<path d="M 293.892578 280.335938 L 293.892578 279.412109 L 300.729980 279.412109 L 300.729980 280.335938 Z " fill="rgb(0, 0, 0)" fill-opacity="1.000000" />
<path d="M 300.892578 280.335938 L 300.892578 279.412109 L 307.729980 279.412109 L 307.729980 280.335938 Z " fill="rgb(0, 0, 0)" fill-opacity="1.000000" />
<path d="M 307.892578 280.335938 L 307.892578 279.412109 L 314.729980 279.412109 L 314.729980 280.335938 Z " fill="rgb(0, 0, 0)" fill-opacity="1.000000" />
<path d="M 317.878906 286.319336 L 317.878906 280.335938 L 314.892578 280.335938 L 314.892578 279.412109 L 318.738281 279.412109 L 318.738281 286.319336 Z " fill="rgb(0, 0, 0)" fill-opacity="1.000000" />
<path d="M 177.878906 208.319336 L 177.878906 201.412109 L 181.729980 201.412109 L 181.729980 202.335938 L 178.738281 202.335938 L 178.738281 208.319336 Z " fill="rgb(0, 0, 0)" fill-opacity="1.000000" />
<path d="M 177.878906 221.319336 L 177.878906 207.300781 L 178.738281 207.300781 L 178.738281 221.319336 Z " fill="rgb(0, 0, 0)" fill-opacity="1.000000" />
<path d="M 177.878906 234.319336 L 177.878906 220.300781 L 178.738281 220.300781 L 178.738281 234.319336 Z " fill="rgb(0, 0, 0)" fill-opacity="1.000000" />
<path d="M 177.878906 247.319336 L 177.878906 233.300781 L 178.738281 233.300781 L 178.738281 247.319336 Z " fill="rgb(0, 0, 0)" fill-opacity="1.000000" />
<path d="M 177.878906 254.335938 L 177.878906 246.300781 L 178.738281 246.300781 L 178.738281 253.412109 L 181.729980 253.412109 L 181.729980 254.335938 Z " fill="rgb(0, 0, 0)" fill-opacity="1.000000" />
<path d="M 240.878906 273.319336 L 240.878906 259.300781 L 241.738281 259.300781 L 241.738281 273.319336 Z " fill="rgb(0, 0, 0)" fill-opacity="1.000000" />
<path d="M 181.892578 254.335938 L 181.892578 253.412109 L 188.729980 253.412109 L 188.729980 254.335938 Z " fill="rgb(0, 0, 0)" fill-opacity="1.000000" />
<path d="M 188.892578 254.335938 L 188.892578 253.412109 L 195.729980 253.412109 L 195.729980 254.335938 Z " fill="rgb(0, 0, 0)" fill-opacity="1.000000" />
<path d="M 195.892578 254.335938 L 195.892578 253.412109 L 202.729980 253.412109 L 202.729980 254.335938 Z " fill="rgb(0, 0, 0)" fill-opacity="1.000000" />
<path d="M 202.892578 254.335938 L 202.892578 253.412109 L 209.729980 253.412109 L 209.729980 254.335938 Z " fill="rgb(0, 0, 0)" fill-opacity="1.000000" />
<path d="M 209.892578 254.335938 L 209.892578 253.412109 L 216.729980 253.412109 L 216.729980 254.335938 Z " fill="rgb(0, 0, 0)" fill-opacity="1.000000" />
<path d="M 216.892578 254.335938 L 216.892578 253.412109 L 223.729980 253.412109 L 223.729980 254.335938 Z " fill="rgb(0, 0, 0)" fill-opacity="1.000000" />
<path d="M 223.892578 254.335938 L 223.892578 253.412109 L 230.729980 253.412109 L 230.729980 254.335938 Z " fill="rgb(0, 0, 0)" fill-opacity="1.000000" />
<path d="M 230.892578 254.335938 L 230.892578 253.412109 L 237.729980 253.412109 L 237.729980 254.335938 Z " fill="rgb(0, 0, 0)" fill-opacity="1.000000" />
<path d="M 237.892578 254.335938 L 237.892578 253.412109 L 244.729980 253.412109 L 244.729980 254.335938 Z " fill="rgb(0, 0, 0)" fill-opacity="1.000000" />
<path d="M 244.892578 254.335938 L 244.892578 253.412109 L 251.729980 253.412109 L 251.729980 254.335938 Z " fill="rgb(0, 0, 0)" fill-opacity="1.000000" />
<path d="M 251.892578 254.335938 L 251.892578 253.412109 L 258.729980 253.412109 L 258.729980 254.335938 Z " fill="rgb(0, 0, 0)" fill-opacity="1.000000" />
<path d="M 258.892578 254.335938 L 258.892578 253.412109 L 265.729980 253.412109 L 265.729980 254.335938 Z " fill="rgb(0, 0, 0)" fill-opacity="1.000000" />
<path d="M 265.892578 254.335938 L 265.892578 253.412109 L 272.729980 253.412109 L 272.729980 254.335938 Z " fill="rgb(0, 0, 0)" fill-opacity="1.000000" />
<path d="M 272.892578 254.335938 L 272.892578 253.412109 L 279.729980 253.412109 L 279.729980 254.335938 Z " fill="rgb(0, 0, 0)" fill-opacity="1.000000" />
<path d="M 279.892578 254.335938 L 279.892578 253.412109 L 286.729980 253.412109 L 286.729980 254.335938 Z " fill="rgb(0, 0, 0)" fill-opacity="1.000000" />
<path d="M 286.892578 254.335938 L 286.892578 253.412109 L 293.729980 253.412109 L 293.729980 254.335938 Z " fill="rgb(0, 0, 0)" fill-opacity="1.000000" />
<path d="M 293.892578 254.335938 L 293.892578 253.412109 L 296.878906 253.412109 L 296.878906 246.300781 L 297.738281 246.300781 L 297.738281 254.335938 Z " fill="rgb(0, 0, 0)" fill-opacity="1.000000" />
<path d="M 191.143066 223.872559 L 191.143066 226.885742 L 192.399902 226.885742 Q 193.151855 226.885742 193.573486 226.488281 Q 193.995117 226.090820 193.995117 225.376465 Q 193.995117 224.662109 193.576172 224.267334 Q 193.157227 223.872559 192.399902 223.872559 Z M 190.058105 222.980957 L 192.399902 222.980957 Q 193.742676 222.980957 194.435547 223.590576 Q 195.128418 224.200195 195.128418 225.376465 Q 195.128418 226.563477 194.438232 227.170410 Q 193.748047 227.777344 192.399902 227.777344 L 191.143066 227.777344 L 191.143066 231.000000 L 190.058105 231.000000 Z " fill="rgb(0, 0, 0)" fill-opacity="1.000000" />
<path d="M 296.878906 247.319336 L 296.878906 233.300781 L 297.738281 233.300781 L 297.738281 247.319336 Z " fill="rgb(0, 0, 0)" fill-opacity="1.000000" />
<path d="M 202.203613 226.225098 Q 201.886719 225.978027 201.559082 225.865234 Q 201.231445 225.752441 200.839355 225.752441 Q 199.915527 225.752441 199.426758 226.332520 Q 198.937988 226.912598 198.937988 228.008301 L 198.937988 231.000000 L 197.944336 231.000000 L 197.944336 224.984375 L 198.937988 224.984375 L 198.937988 226.160645 Q 199.185059 225.521484 199.697998 225.180420 Q 200.210938 224.839355 200.914551 224.839355 Q 201.279785 224.839355 201.596680 224.930664 Q 201.913574 225.021973 202.203613 225.215332 Z " fill="rgb(0, 0, 0)" fill-opacity="1.000000" />
<path d="M 206.308594 225.677246 Q 205.556641 225.677246 205.169922 226.262695 Q 204.783203 226.848145 204.783203 227.997559 Q 204.783203 229.141602 205.169922 229.729736 Q 205.556641 230.317871 206.308594 230.317871 Q 207.065918 230.317871 207.452637 229.729736 Q 207.839355 229.141602 207.839355 227.997559 Q 207.839355 226.848145 207.452637 226.262695 Q 207.065918 225.677246 206.308594 225.677246 Z M 206.308594 224.839355 Q 207.560059 224.839355 208.223389 225.650391 Q 208.886719 226.461426 208.886719 227.997559 Q 208.886719 229.539062 208.226074 230.347412 Q 207.565430 231.155762 206.308594 231.155762 Q 205.057129 231.155762 204.396484 230.347412 Q 203.735840 229.539062 203.735840 227.997559 Q 203.735840 226.461426 204.396484 225.650391 Q 205.057129 224.839355 206.308594 224.839355 Z " fill="rgb(0, 0, 0)" fill-opacity="1.000000" />
<path d="M 214.608398 225.752441 L 214.608398 222.642578 L 215.596680 222.642578 L 215.596680 231.000000 L 214.608398 231.000000 L 214.608398 230.242676 Q 214.361328 230.688477 213.950439 230.922119 Q 213.539551 231.155762 213.002441 231.155762 Q 211.912109 231.155762 211.286377 230.309814 Q 210.660645 229.463867 210.660645 227.976074 Q 210.660645 226.509766 211.289062 225.674561 Q 211.917480 224.839355 213.002441 224.839355 Q 213.544922 224.839355 213.958496 225.072998 Q 214.372070 225.306641 214.608398 225.752441 Z M 211.702637 227.997559 Q 211.702637 229.146973 212.067871 229.732422 Q 212.433105 230.317871 213.147461 230.317871 Q 213.861816 230.317871 214.235107 229.727051 Q 214.608398 229.136230 214.608398 227.997559 Q 214.608398 226.853516 214.235107 226.265381 Q 213.861816 225.677246 213.147461 225.677246 Q 212.433105 225.677246 212.067871 226.262695 Q 211.702637 226.848145 211.702637 227.997559 Z " fill="rgb(0, 0, 0)" fill-opacity="1.000000" />
<path d="M 218.047363 228.722656 L 218.047363 224.995117 L 219.035645 224.995117 L 219.035645 228.722656 Q 219.035645 229.533691 219.322998 229.915039 Q 219.610352 230.296387 220.211914 230.296387 Q 220.910156 230.296387 221.280762 229.804932 Q 221.651367 229.313477 221.651367 228.395020 L 221.651367 224.995117 L 222.645020 224.995117 L 222.645020 231.000000 L 221.651367 231.000000 L 221.651367 230.097656 Q 221.388184 230.618652 220.934326 230.887207 Q 220.480469 231.155762 219.873535 231.155762 Q 218.949707 231.155762 218.498535 230.551514 Q 218.047363 229.947266 218.047363 228.722656 Z " fill="rgb(0, 0, 0)" fill-opacity="1.000000" />
<path d="M 229.698730 230.693848 Q 229.301270 230.924805 228.879639 231.040283 Q 228.458008 231.155762 228.017578 231.155762 Q 226.621094 231.155762 225.834229 230.317871 Q 225.047363 229.479980 225.047363 227.997559 Q 225.047363 226.515137 225.834229 225.677246 Q 226.621094 224.839355 228.017578 224.839355 Q 228.452637 224.839355 228.866211 224.952148 Q 229.279785 225.064941 229.698730 225.301270 L 229.698730 226.337891 Q 229.306641 225.988770 228.911865 225.833008 Q 228.517090 225.677246 228.017578 225.677246 Q 227.088379 225.677246 226.588867 226.278809 Q 226.089355 226.880371 226.089355 227.997559 Q 226.089355 229.109375 226.591553 229.713623 Q 227.093750 230.317871 228.017578 230.317871 Q 228.533203 230.317871 228.941406 230.159424 Q 229.349609 230.000977 229.698730 229.667969 Z " fill="rgb(0, 0, 0)" fill-opacity="1.000000" />
<path d="M 234.297852 223.276367 L 234.297852 224.984375 L 236.542969 224.984375 L 236.542969 225.752441 L 234.297852 225.752441 L 234.297852 229.018066 Q 234.297852 229.684082 234.550293 229.947266 Q 234.802734 230.210449 235.431152 230.210449 L 236.542969 230.210449 L 236.542969 231.000000 L 235.334473 231.000000 Q 234.222656 231.000000 233.766113 230.554199 Q 233.309570 230.108398 233.309570 229.018066 L 233.309570 225.752441 L 231.703613 225.752441 L 231.703613 224.984375 L 233.309570 224.984375 L 233.309570 223.276367 Z " fill="rgb(0, 0, 0)" fill-opacity="1.000000" />
<path d="M 240.341797 230.108398 Q 241.711426 230.108398 242.253906 229.434326 Q 242.796387 228.760254 242.796387 226.998535 Q 242.796387 225.220703 242.256592 224.546631 Q 241.716797 223.872559 240.341797 223.872559 L 239.826172 223.872559 L 239.826172 230.108398 Z M 240.363281 222.980957 Q 242.200195 222.980957 243.070312 223.958496 Q 243.940430 224.936035 243.940430 226.998535 Q 243.940430 229.050293 243.070312 230.025146 Q 242.200195 231.000000 240.363281 231.000000 L 238.735840 231.000000 L 238.735840 222.980957 Z " fill="rgb(0, 0, 0)" fill-opacity="1.000000" />
<path d="M 251.015625 227.498047 L 251.015625 227.981445 L 246.734863 227.981445 L 246.734863 228.013672 Q 246.691895 229.243652 247.204834 229.780762 Q 247.717773 230.317871 248.652344 230.317871 Q 249.125000 230.317871 249.640625 230.167480 Q 250.156250 230.017090 250.741699 229.710938 L 250.741699 230.693848 Q 250.177734 230.924805 249.654053 231.040283 Q 249.130371 231.155762 248.641602 231.155762 Q 247.239746 231.155762 246.450195 230.315186 Q 245.660645 229.474609 245.660645 227.997559 Q 245.660645 226.558105 246.434082 225.698730 Q 247.207520 224.839355 248.496582 224.839355 Q 249.645996 224.839355 250.309326 225.618164 Q 250.972656 226.396973 251.015625 227.498047 Z M 250.027344 227.208008 Q 249.962891 226.584961 249.573486 226.131104 Q 249.184082 225.677246 248.453613 225.677246 Q 247.739258 225.677246 247.277344 226.149902 Q 246.815430 226.622559 246.772461 227.213379 Z " fill="rgb(0, 0, 0)" fill-opacity="1.000000" />
<path d="M 255.297852 223.276367 L 255.297852 224.984375 L 257.542969 224.984375 L 257.542969 225.752441 L 255.297852 225.752441 L 255.297852 229.018066 Q 255.297852 229.684082 255.550293 229.947266 Q 255.802734 230.210449 256.431152 230.210449 L 257.542969 230.210449 L 257.542969 231.000000 L 256.334473 231.000000 Q 255.222656 231.000000 254.766113 230.554199 Q 254.309570 230.108398 254.309570 229.018066 L 254.309570 225.752441 L 252.703613 225.752441 L 252.703613 224.984375 L 254.309570 224.984375 L 254.309570 223.276367 Z " fill="rgb(0, 0, 0)" fill-opacity="1.000000" />
<path d="M 262.770508 227.976074 L 262.442871 227.976074 Q 261.578125 227.976074 261.140381 228.279541 Q 260.702637 228.583008 260.702637 229.184570 Q 260.702637 229.727051 261.030273 230.027832 Q 261.357910 230.328613 261.937988 230.328613 Q 262.754395 230.328613 263.221680 229.761963 Q 263.688965 229.195312 263.694336 228.196289 L 263.694336 227.976074 Z M 264.687988 227.567871 L 264.687988 231.000000 L 263.694336 231.000000 L 263.694336 230.108398 Q 263.377441 230.645508 262.896729 230.900635 Q 262.416016 231.155762 261.728516 231.155762 Q 260.810059 231.155762 260.262207 230.637451 Q 259.714355 230.119141 259.714355 229.249023 Q 259.714355 228.244629 260.388428 227.723633 Q 261.062500 227.202637 262.367676 227.202637 L 263.694336 227.202637 L 263.694336 227.046875 Q 263.688965 226.327148 263.329102 226.002197 Q 262.969238 225.677246 262.179688 225.677246 Q 261.674805 225.677246 261.159180 225.822266 Q 260.643555 225.967285 260.154785 226.246582 L 260.154785 225.258301 Q 260.702637 225.048828 261.204834 224.944092 Q 261.707031 224.839355 262.179688 224.839355 Q 262.926270 224.839355 263.455322 225.059570 Q 263.984375 225.279785 264.312012 225.720215 Q 264.516113 225.988770 264.602051 226.383545 Q 264.687988 226.778320 264.687988 227.567871 Z " fill="rgb(0, 0, 0)" fill-opacity="1.000000" />
<path d="M 267.697266 225.005859 L 270.227051 225.005859 L 270.227051 230.231934 L 272.187500 230.231934 L 272.187500 231.000000 L 267.278320 231.000000 L 267.278320 230.231934 L 269.238770 230.231934 L 269.238770 225.773926 L 267.697266 225.773926 Z M 269.238770 222.669434 L 270.227051 222.669434 L 270.227051 223.915527 L 269.238770 223.915527 Z " fill="rgb(0, 0, 0)" fill-opacity="1.000000" />
<path d="M 276.861816 228.824707 Q 276.861816 229.490723 277.106201 229.829102 Q 277.350586 230.167480 277.828613 230.167480 L 278.983398 230.167480 L 278.983398 231.000000 L 277.731934 231.000000 Q 276.845703 231.000000 276.359619 230.433350 Q 275.873535 229.866699 275.873535 228.824707 L 275.873535 223.383789 L 274.289062 223.383789 L 274.289062 222.610352 L 276.861816 222.610352 Z " fill="rgb(0, 0, 0)" fill-opacity="1.000000" />
<path d="M 296.878906 234.319336 L 296.878906 220.300781 L 297.738281 220.300781 L 297.738281 234.319336 Z " fill="rgb(0, 0, 0)" fill-opacity="1.000000" />
<path d="M 296.878906 221.319336 L 296.878906 207.300781 L 297.738281 207.300781 L 297.738281 221.319336 Z " fill="rgb(0, 0, 0)" fill-opacity="1.000000" />
<path d="M 181.892578 202.335938 L 181.892578 201.412109 L 188.729980 201.412109 L 188.729980 202.335938 Z " fill="rgb(0, 0, 0)" fill-opacity="1.000000" />
<path d="M 188.892578 202.335938 L 188.892578 201.412109 L 195.729980 201.412109 L 195.729980 202.335938 Z " fill="rgb(0, 0, 0)" fill-opacity="1.000000" />
<path d="M 195.892578 202.335938 L 195.892578 201.412109 L 202.729980 201.412109 L 202.729980 202.335938 Z " fill="rgb(0, 0, 0)" fill-opacity="1.000000" />
<path d="M 202.892578 202.335938 L 202.892578 201.412109 L 209.729980 201.412109 L 209.729980 202.335938 Z " fill="rgb(0, 0, 0)" fill-opacity="1.000000" />
<path d="M 209.892578 202.335938 L 209.892578 201.412109 L 216.729980 201.412109 L 216.729980 202.335938 Z " fill="rgb(0, 0, 0)" fill-opacity="1.000000" />
<path d="M 216.892578 202.335938 L 216.892578 201.412109 L 223.729980 201.412109 L 223.729980 202.335938 Z " fill="rgb(0, 0, 0)" fill-opacity="1.000000" />
<path d="M 223.892578 202.335938 L 223.892578 201.412109 L 230.729980 201.412109 L 230.729980 202.335938 Z " fill="rgb(0, 0, 0)" fill-opacity="1.000000" />
<path d="M 230.892578 202.335938 L 230.892578 201.412109 L 237.729980 201.412109 L 237.729980 202.335938 Z " fill="rgb(0, 0, 0)" fill-opacity="1.000000" />
<path d="M 237.892578 202.335938 L 237.892578 201.412109 L 244.729980 201.412109 L 244.729980 202.335938 Z " fill="rgb(0, 0, 0)" fill-opacity="1.000000" />
<path d="M 244.892578 202.335938 L 244.892578 201.412109 L 251.729980 201.412109 L 251.729980 202.335938 Z " fill="rgb(0, 0, 0)" fill-opacity="1.000000" />
<path d="M 251.892578 202.335938 L 251.892578 201.412109 L 258.729980 201.412109 L 258.729980 202.335938 Z " fill="rgb(0, 0, 0)" fill-opacity="1.000000" />
<path d="M 258.892578 202.335938 L 258.892578 201.412109 L 265.729980 201.412109 L 265.729980 202.335938 Z " fill="rgb(0, 0, 0)" fill-opacity="1.000000" />
<path d="M 265.892578 202.335938 L 265.892578 201.412109 L 272.729980 201.412109 L 272.729980 202.335938 Z " fill="rgb(0, 0, 0)" fill-opacity="1.000000" />
<path d="M 272.892578 202.335938 L 272.892578 201.412109 L 279.729980 201.412109 L 279.729980 202.335938 Z " fill="rgb(0, 0, 0)" fill-opacity="1.000000" />
<path d="M 279.892578 202.335938 L 279.892578 201.412109 L 286.729980 201.412109 L 286.729980 202.335938 Z " fill="rgb(0, 0, 0)" fill-opacity="1.000000" />
<path d="M 286.892578 202.335938 L 286.892578 201.412109 L 293.729980 201.412109 L 293.729980 202.335938 Z " fill="rgb(0, 0, 0)" fill-opacity="1.000000" />
<path d="M 296.878906 208.319336 L 296.878906 202.335938 L 293.892578 202.335938 L 293.892578 201.412109 L 297.738281 201.412109 L 297.738281 208.319336 Z " fill="rgb(0, 0, 0)" fill-opacity="1.000000" />
<path d="M 240.878906 182.319336 L 240.878906 168.300781 L 241.738281 168.300781 L 241.738281 182.319336 Z " fill="rgb(0, 0, 0)" fill-opacity="1.000000" />
<path d="M 241.308594 192.418945 L 238.032227 185.866211 L 244.590332 185.866211 Z " fill="rgb(0, 0, 0)" fill-opacity="1.000000" />
<path d="M 6.892578 163.335938 L 6.892578 162.412109 L 13.729980 162.412109 L 13.729980 163.335938 Z " fill="rgb(0, 0, 0)" fill-opacity="1.000000" />
<path d="M 13.892578 163.335938 L 13.892578 162.412109 L 20.729980 162.412109 L 20.729980 163.335938 Z " fill="rgb(0, 0, 0)" fill-opacity="1.000000" />
<path d="M 20.892578 163.335938 L 20.892578 162.412109 L 27.729980 162.412109 L 27.729980 163.335938 Z " fill="rgb(0, 0, 0)" fill-opacity="1.000000" />
<path d="M 27.892578 163.335938 L 27.892578 162.412109 L 34.729980 162.412109 L 34.729980 163.335938 Z " fill="rgb(0, 0, 0)" fill-opacity="1.000000" />
<path d="M 34.892578 163.335938 L 34.892578 162.412109 L 41.729980 162.412109 L 41.729980 163.335938 Z " fill="rgb(0, 0, 0)" fill-opacity="1.000000" />
<path d="M 41.892578 163.335938 L 41.892578 162.412109 L 48.729980 162.412109 L 48.729980 163.335938 Z " fill="rgb(0, 0, 0)" fill-opacity="1.000000" />
<path d="M 48.892578 163.335938 L 48.892578 162.412109 L 55.729980 162.412109 L 55.729980 163.335938 Z " fill="rgb(0, 0, 0)" fill-opacity="1.000000" />
<path d="M 55.892578 163.335938 L 55.892578 162.412109 L 62.729980 162.412109 L 62.729980 163.335938 Z " fill="rgb(0, 0, 0)" fill-opacity="1.000000" />
<path d="M 62.892578 163.335938 L 62.892578 162.412109 L 69.729980 162.412109 L 69.729980 163.335938 Z " fill="rgb(0, 0, 0)" fill-opacity="1.000000" />
<path d="M 69.892578 163.335938 L 69.892578 162.412109 L 76.729980 162.412109 L 76.729980 163.335938 Z " fill="rgb(0, 0, 0)" fill-opacity="1.000000" />
<path d="M 76.892578 163.335938 L 76.892578 162.412109 L 83.729980 162.412109 L 83.729980 163.335938 Z " fill="rgb(0, 0, 0)" fill-opacity="1.000000" />
<path d="M 83.892578 163.335938 L 83.892578 162.412109 L 90.729980 162.412109 L 90.729980 163.335938 Z " fill="rgb(0, 0, 0)" fill-opacity="1.000000" />
<path d="M 90.892578 163.335938 L 90.892578 162.412109 L 97.729980 162.412109 L 97.729980 163.335938 Z " fill="rgb(0, 0, 0)" fill-opacity="1.000000" />
<path d="M 97.892578 163.335938 L 97.892578 162.412109 L 104.729980 162.412109 L 104.729980 163.335938 Z " fill="rgb(0, 0, 0)" fill-opacity="1.000000" />
<path d="M 104.892578 163.335938 L 104.892578 162.412109 L 111.729980 162.412109 L 111.729980 163.335938 Z " fill="rgb(0, 0, 0)" fill-opacity="1.000000" />
<path d="M 111.892578 163.335938 L 111.892578 162.412109 L 118.729980 162.412109 L 118.729980 163.335938 Z " fill="rgb(0, 0, 0)" fill-opacity="1.000000" />
<path d="M 118.892578 163.335938 L 118.892578 162.412109 L 121.878906 162.412109 L 121.878906 155.300781 L 122.738281 155.300781 L 122.738281 163.335938 Z " fill="rgb(0, 0, 0)" fill-opacity="1.000000" />
<path d="M 177.878906 163.335938 L 177.878906 155.300781 L 178.738281 155.300781 L 178.738281 162.412109 L 181.729980 162.412109 L 181.729980 163.335938 Z " fill="rgb(0, 0, 0)" fill-opacity="1.000000" />
<path d="M 181.892578 163.335938 L 181.892578 162.412109 L 188.729980 162.412109 L 188.729980 163.335938 Z " fill="rgb(0, 0, 0)" fill-opacity="1.000000" />
<path d="M 188.892578 163.335938 L 188.892578 162.412109 L 195.729980 162.412109 L 195.729980 163.335938 Z " fill="rgb(0, 0, 0)" fill-opacity="1.000000" />
<path d="M 195.892578 163.335938 L 195.892578 162.412109 L 202.729980 162.412109 L 202.729980 163.335938 Z " fill="rgb(0, 0, 0)" fill-opacity="1.000000" />
<path d="M 202.892578 163.335938 L 202.892578 162.412109 L 209.729980 162.412109 L 209.729980 163.335938 Z " fill="rgb(0, 0, 0)" fill-opacity="1.000000" />
<path d="M 209.892578 163.335938 L 209.892578 162.412109 L 216.729980 162.412109 L 216.729980 163.335938 Z " fill="rgb(0, 0, 0)" fill-opacity="1.000000" />
<path d="M 216.892578 163.335938 L 216.892578 162.412109 L 223.729980 162.412109 L 223.729980 163.335938 Z " fill="rgb(0, 0, 0)" fill-opacity="1.000000" />
<path d="M 223.892578 163.335938 L 223.892578 162.412109 L 230.729980 162.412109 L 230.729980 163.335938 Z " fill="rgb(0, 0, 0)" fill-opacity="1.000000" />
<path d="M 230.892578 163.335938 L 230.892578 162.412109 L 237.729980 162.412109 L 237.729980 163.335938 Z " fill="rgb(0, 0, 0)" fill-opacity="1.000000" />
<path d="M 237.892578 163.335938 L 237.892578 162.412109 L 244.729980 162.412109 L 244.729980 163.335938 Z " fill="rgb(0, 0, 0)" fill-opacity="1.000000" />
<path d="M 244.892578 163.335938 L 244.892578 162.412109 L 251.729980 162.412109 L 251.729980 163.335938 Z " fill="rgb(0, 0, 0)" fill-opacity="1.000000" />
<path d="M 251.892578 163.335938 L 251.892578 162.412109 L 258.729980 162.412109 L 258.729980 163.335938 Z " fill="rgb(0, 0, 0)" fill-opacity="1.000000" />
<path d="M 258.892578 163.335938 L 258.892578 162.412109 L 265.729980 162.412109 L 265.729980 163.335938 Z " fill="rgb(0, 0, 0)" fill-opacity="1.000000" />
<path d="M 265.892578 163.335938 L 265.892578 162.412109 L 272.729980 162.412109 L 272.729980 163.335938 Z " fill="rgb(0, 0, 0)" fill-opacity="1.000000" />
<path d="M 272.892578 163.335938 L 272.892578 162.412109 L 279.729980 162.412109 L 279.729980 163.335938 Z " fill="rgb(0, 0, 0)" fill-opacity="1.000000" />
<path d="M 279.892578 163.335938 L 279.892578 162.412109 L 286.729980 162.412109 L 286.729980 163.335938 Z " fill="rgb(0, 0, 0)" fill-opacity="1.000000" />
<path d="M 286.892578 163.335938 L 286.892578 162.412109 L 293.729980 162.412109 L 293.729980 163.335938 Z " fill="rgb(0, 0, 0)" fill-opacity="1.000000" />
<path d="M 293.892578 163.335938 L 293.892578 162.412109 L 296.878906 162.412109 L 296.878906 155.300781 L 297.738281 155.300781 L 297.738281 163.335938 Z " fill="rgb(0, 0, 0)" fill-opacity="1.000000" />
<path d="M 42.735840 131.980957 L 43.826172 131.980957 L 43.826172 135.053223 L 46.796387 135.053223 L 46.796387 131.980957 L 47.886719 131.980957 L 47.886719 140.000000 L 46.796387 140.000000 L 46.796387 135.966309 L 43.826172 135.966309 L 43.826172 140.000000 L 42.735840 140.000000 Z " fill="rgb(0, 0, 0)" fill-opacity="1.000000" />
<path d="M 121.878906 156.319336 L 121.878906 142.300781 L 122.738281 142.300781 L 122.738281 156.319336 Z " fill="rgb(0, 0, 0)" fill-opacity="1.000000" />
<path d="M 177.878906 156.319336 L 177.878906 142.300781 L 178.738281 142.300781 L 178.738281 156.319336 Z " fill="rgb(0, 0, 0)" fill-opacity="1.000000" />
<path d="M 296.878906 156.319336 L 296.878906 142.300781 L 297.738281 142.300781 L 297.738281 156.319336 Z " fill="rgb(0, 0, 0)" fill-opacity="1.000000" />
<path d="M 55.015625 136.498047 L 55.015625 136.981445 L 50.734863 136.981445 L 50.734863 137.013672 Q 50.691895 138.243652 51.204834 138.780762 Q 51.717773 139.317871 52.652344 139.317871 Q 53.125000 139.317871 53.640625 139.167480 Q 54.156250 139.017090 54.741699 138.710938 L 54.741699 139.693848 Q 54.177734 139.924805 53.654053 140.040283 Q 53.130371 140.155762 52.641602 140.155762 Q 51.239746 140.155762 50.450195 139.315186 Q 49.660645 138.474609 49.660645 136.997559 Q 49.660645 135.558105 50.434082 134.698730 Q 51.207520 133.839355 52.496582 133.839355 Q 53.645996 133.839355 54.309326 134.618164 Q 54.972656 135.396973 55.015625 136.498047 Z M 54.027344 136.208008 Q 53.962891 135.584961 53.573486 135.131104 Q 53.184082 134.677246 52.453613 134.677246 Q 51.739258 134.677246 51.277344 135.149902 Q 50.815430 135.622559 50.772461 136.213379 Z " fill="rgb(0, 0, 0)" fill-opacity="1.000000" />
<path d="M 59.770508 136.976074 L 59.442871 136.976074 Q 58.578125 136.976074 58.140381 137.279541 Q 57.702637 137.583008 57.702637 138.184570 Q 57.702637 138.727051 58.030273 139.027832 Q 58.357910 139.328613 58.937988 139.328613 Q 59.754395 139.328613 60.221680 138.761963 Q 60.688965 138.195312 60.694336 137.196289 L 60.694336 136.976074 Z M 61.687988 136.567871 L 61.687988 140.000000 L 60.694336 140.000000 L 60.694336 139.108398 Q 60.377441 139.645508 59.896729 139.900635 Q 59.416016 140.155762 58.728516 140.155762 Q 57.810059 140.155762 57.262207 139.637451 Q 56.714355 139.119141 56.714355 138.249023 Q 56.714355 137.244629 57.388428 136.723633 Q 58.062500 136.202637 59.367676 136.202637 L 60.694336 136.202637 L 60.694336 136.046875 Q 60.688965 135.327148 60.329102 135.002197 Q 59.969238 134.677246 59.179688 134.677246 Q 58.674805 134.677246 58.159180 134.822266 Q 57.643555 134.967285 57.154785 135.246582 L 57.154785 134.258301 Q 57.702637 134.048828 58.204834 133.944092 Q 58.707031 133.839355 59.179688 133.839355 Q 59.926270 133.839355 60.455322 134.059570 Q 60.984375 134.279785 61.312012 134.720215 Q 61.516113 134.988770 61.602051 135.383545 Q 61.687988 135.778320 61.687988 136.567871 Z " fill="rgb(0, 0, 0)" fill-opacity="1.000000" />
<path d="M 67.608398 134.752441 L 67.608398 131.642578 L 68.596680 131.642578 L 68.596680 140.000000 L 67.608398 140.000000 L 67.608398 139.242676 Q 67.361328 139.688477 66.950439 139.922119 Q 66.539551 140.155762 66.002441 140.155762 Q 64.912109 140.155762 64.286377 139.309814 Q 63.660645 138.463867 63.660645 136.976074 Q 63.660645 135.509766 64.289062 134.674561 Q 64.917480 133.839355 66.002441 133.839355 Q 66.544922 133.839355 66.958496 134.072998 Q 67.372070 134.306641 67.608398 134.752441 Z M 64.702637 136.997559 Q 64.702637 138.146973 65.067871 138.732422 Q 65.433105 139.317871 66.147461 139.317871 Q 66.861816 139.317871 67.235107 138.727051 Q 67.608398 138.136230 67.608398 136.997559 Q 67.608398 135.853516 67.235107 135.265381 Q 66.861816 134.677246 66.147461 134.677246 Q 65.433105 134.677246 65.067871 135.262695 Q 64.702637 135.848145 64.702637 136.997559 Z " fill="rgb(0, 0, 0)" fill-opacity="1.000000" />
<path d="M 76.015625 136.498047 L 76.015625 136.981445 L 71.734863 136.981445 L 71.734863 137.013672 Q 71.691895 138.243652 72.204834 138.780762 Q 72.717773 139.317871 73.652344 139.317871 Q 74.125000 139.317871 74.640625 139.167480 Q 75.156250 139.017090 75.741699 138.710938 L 75.741699 139.693848 Q 75.177734 139.924805 74.654053 140.040283 Q 74.130371 140.155762 73.641602 140.155762 Q 72.239746 140.155762 71.450195 139.315186 Q 70.660645 138.474609 70.660645 136.997559 Q 70.660645 135.558105 71.434082 134.698730 Q 72.207520 133.839355 73.496582 133.839355 Q 74.645996 133.839355 75.309326 134.618164 Q 75.972656 135.396973 76.015625 136.498047 Z M 75.027344 136.208008 Q 74.962891 135.584961 74.573486 135.131104 Q 74.184082 134.677246 73.453613 134.677246 Q 72.739258 134.677246 72.277344 135.149902 Q 71.815430 135.622559 71.772461 136.213379 Z " fill="rgb(0, 0, 0)" fill-opacity="1.000000" />
<path d="M 83.203613 135.225098 Q 82.886719 134.978027 82.559082 134.865234 Q 82.231445 134.752441 81.839355 134.752441 Q 80.915527 134.752441 80.426758 135.332520 Q 79.937988 135.912598 79.937988 137.008301 L 79.937988 140.000000 L 78.944336 140.000000 L 78.944336 133.984375 L 79.937988 133.984375 L 79.937988 135.160645 Q 80.185059 134.521484 80.697998 134.180420 Q 81.210938 133.839355 81.914551 133.839355 Q 82.279785 133.839355 82.596680 133.930664 Q 82.913574 134.021973 83.203613 134.215332 Z " fill="rgb(0, 0, 0)" fill-opacity="1.000000" />
<path d="M 121.878906 143.319336 L 121.878906 129.300781 L 122.738281 129.300781 L 122.738281 143.319336 Z " fill="rgb(0, 0, 0)" fill-opacity="1.000000" />
<path d="M 177.878906 143.319336 L 177.878906 129.300781 L 178.738281 129.300781 L 178.738281 143.319336 Z " fill="rgb(0, 0, 0)" fill-opacity="1.000000" />
<path d="M 225.981934 135.955566 L 225.981934 139.108398 L 227.265625 139.108398 Q 228.210938 139.108398 228.613770 138.778076 Q 229.016602 138.447754 229.016602 137.690430 Q 229.016602 136.691406 228.592285 136.323486 Q 228.167969 135.955566 227.265625 135.955566 Z M 225.981934 132.872559 L 225.981934 135.074707 L 227.244141 135.074707 Q 228.028320 135.074707 228.380127 134.773926 Q 228.731934 134.473145 228.731934 134.016602 Q 228.731934 133.409668 228.385498 133.141113 Q 228.039062 132.872559 227.244141 132.872559 Z M 224.891602 131.980957 L 227.265625 131.980957 Q 228.495605 131.980957 229.161621 132.512695 Q 229.827637 133.044434 229.827637 134.016602 Q 229.827637 134.537598 229.475830 134.961914 Q 229.124023 135.386230 228.420410 135.493652 Q 229.209961 135.611816 229.658447 136.167725 Q 230.106934 136.723633 230.106934 137.797852 Q 230.106934 138.888184 229.392578 139.444092 Q 228.678223 140.000000 227.265625 140.000000 L 224.891602 140.000000 Z " fill="rgb(0, 0, 0)" fill-opacity="1.000000" />
<path d="M 234.308594 134.677246 Q 233.556641 134.677246 233.169922 135.262695 Q 232.783203 135.848145 232.783203 136.997559 Q 232.783203 138.141602 233.169922 138.729736 Q 233.556641 139.317871 234.308594 139.317871 Q 235.065918 139.317871 235.452637 138.729736 Q 235.839355 138.141602 235.839355 136.997559 Q 235.839355 135.848145 235.452637 135.262695 Q 235.065918 134.677246 234.308594 134.677246 Z M 234.308594 133.839355 Q 235.560059 133.839355 236.223389 134.650391 Q 236.886719 135.461426 236.886719 136.997559 Q 236.886719 138.539062 236.226074 139.347412 Q 235.565430 140.155762 234.308594 140.155762 Q 233.057129 140.155762 232.396484 139.347412 Q 231.735840 138.539062 231.735840 136.997559 Q 231.735840 135.461426 232.396484 134.650391 Q 233.057129 133.839355 234.308594 133.839355 Z " fill="rgb(0, 0, 0)" fill-opacity="1.000000" />
<path d="M 242.608398 134.752441 L 242.608398 131.642578 L 243.596680 131.642578 L 243.596680 140.000000 L 242.608398 140.000000 L 242.608398 139.242676 Q 242.361328 139.688477 241.950439 139.922119 Q 241.539551 140.155762 241.002441 140.155762 Q 239.912109 140.155762 239.286377 139.309814 Q 238.660645 138.463867 238.660645 136.976074 Q 238.660645 135.509766 239.289062 134.674561 Q 239.917480 133.839355 241.002441 133.839355 Q 241.544922 133.839355 241.958496 134.072998 Q 242.372070 134.306641 242.608398 134.752441 Z M 239.702637 136.997559 Q 239.702637 138.146973 240.067871 138.732422 Q 240.433105 139.317871 241.147461 139.317871 Q 241.861816 139.317871 242.235107 138.727051 Q 242.608398 138.136230 242.608398 136.997559 Q 242.608398 135.853516 242.235107 135.265381 Q 241.861816 134.677246 241.147461 134.677246 Q 240.433105 134.677246 240.067871 135.262695 Q 239.702637 135.848145 239.702637 136.997559 Z " fill="rgb(0, 0, 0)" fill-opacity="1.000000" />
<path d="M 249.608398 138.066406 Q 249.361328 138.694824 248.979980 139.720703 Q 248.448242 141.138672 248.265625 141.450195 Q 248.018555 141.869141 247.647949 142.078613 Q 247.277344 142.288086 246.783203 142.288086 L 245.988281 142.288086 L 245.988281 141.460938 L 246.573730 141.460938 Q 247.008789 141.460938 247.255859 141.208496 Q 247.502930 140.956055 247.884277 139.903320 L 245.558594 133.984375 L 246.605957 133.984375 L 248.389160 138.689453 L 250.145508 133.984375 L 251.192871 133.984375 Z " fill="rgb(0, 0, 0)" fill-opacity="1.000000" />
<path d="M 296.878906 143.319336 L 296.878906 129.300781 L 297.738281 129.300781 L 297.738281 143.319336 Z " fill="rgb(0, 0, 0)" fill-opacity="1.000000" />
<path d="M 121.878906 130.319336 L 121.878906 116.300781 L 122.738281 116.300781 L 122.738281 130.319336 Z " fill="rgb(0, 0, 0)" fill-opacity="1.000000" />
<path d="M 177.878906 130.319336 L 177.878906 116.300781 L 178.738281 116.300781 L 178.738281 130.319336 Z " fill="rgb(0, 0, 0)" fill-opacity="1.000000" />
<path d="M 296.878906 130.319336 L 296.878906 116.300781 L 297.738281 116.300781 L 297.738281 130.319336 Z " fill="rgb(0, 0, 0)" fill-opacity="1.000000" />
<path d="M 6.892578 111.335938 L 6.892578 110.412109 L 13.729980 110.412109 L 13.729980 111.335938 Z " fill="rgb(0, 0, 0)" fill-opacity="1.000000" />
<path d="M 13.892578 111.335938 L 13.892578 110.412109 L 20.729980 110.412109 L 20.729980 111.335938 Z " fill="rgb(0, 0, 0)" fill-opacity="1.000000" />
<path d="M 20.892578 111.335938 L 20.892578 110.412109 L 27.729980 110.412109 L 27.729980 111.335938 Z " fill="rgb(0, 0, 0)" fill-opacity="1.000000" />
<path d="M 27.892578 111.335938 L 27.892578 110.412109 L 34.729980 110.412109 L 34.729980 111.335938 Z " fill="rgb(0, 0, 0)" fill-opacity="1.000000" />
<path d="M 34.892578 111.335938 L 34.892578 110.412109 L 41.729980 110.412109 L 41.729980 111.335938 Z " fill="rgb(0, 0, 0)" fill-opacity="1.000000" />
<path d="M 41.892578 111.335938 L 41.892578 110.412109 L 48.729980 110.412109 L 48.729980 111.335938 Z " fill="rgb(0, 0, 0)" fill-opacity="1.000000" />
<path d="M 48.892578 111.335938 L 48.892578 110.412109 L 55.729980 110.412109 L 55.729980 111.335938 Z " fill="rgb(0, 0, 0)" fill-opacity="1.000000" />
<path d="M 55.892578 111.335938 L 55.892578 110.412109 L 62.729980 110.412109 L 62.729980 111.335938 Z " fill="rgb(0, 0, 0)" fill-opacity="1.000000" />
<path d="M 62.892578 111.335938 L 62.892578 110.412109 L 69.729980 110.412109 L 69.729980 111.335938 Z " fill="rgb(0, 0, 0)" fill-opacity="1.000000" />
<path d="M 69.892578 111.335938 L 69.892578 110.412109 L 76.729980 110.412109 L 76.729980 111.335938 Z " fill="rgb(0, 0, 0)" fill-opacity="1.000000" />
<path d="M 76.892578 111.335938 L 76.892578 110.412109 L 83.729980 110.412109 L 83.729980 111.335938 Z " fill="rgb(0, 0, 0)" fill-opacity="1.000000" />
<path d="M 83.892578 111.335938 L 83.892578 110.412109 L 90.729980 110.412109 L 90.729980 111.335938 Z " fill="rgb(0, 0, 0)" fill-opacity="1.000000" />
<path d="M 90.892578 111.335938 L 90.892578 110.412109 L 97.729980 110.412109 L 97.729980 111.335938 Z " fill="rgb(0, 0, 0)" fill-opacity="1.000000" />
<path d="M 97.892578 111.335938 L 97.892578 110.412109 L 104.729980 110.412109 L 104.729980 111.335938 Z " fill="rgb(0, 0, 0)" fill-opacity="1.000000" />
<path d="M 104.892578 111.335938 L 104.892578 110.412109 L 111.729980 110.412109 L 111.729980 111.335938 Z " fill="rgb(0, 0, 0)" fill-opacity="1.000000" />
<path d="M 111.892578 111.335938 L 111.892578 110.412109 L 118.729980 110.412109 L 118.729980 111.335938 Z " fill="rgb(0, 0, 0)" fill-opacity="1.000000" />
<path d="M 121.878906 117.319336 L 121.878906 111.335938 L 118.892578 111.335938 L 118.892578 110.412109 L 122.738281 110.412109 L 122.738281 117.319336 Z " fill="rgb(0, 0, 0)" fill-opacity="1.000000" />
<path d="M 177.878906 117.319336 L 177.878906 110.412109 L 181.729980 110.412109 L 181.729980 111.335938 L 178.738281 111.335938 L 178.738281 117.319336 Z " fill="rgb(0, 0, 0)" fill-opacity="1.000000" />
<path d="M 181.892578 111.335938 L 181.892578 110.412109 L 188.729980 110.412109 L 188.729980 111.335938 Z " fill="rgb(0, 0, 0)" fill-opacity="1.000000" />
<path d="M 188.892578 111.335938 L 188.892578 110.412109 L 195.729980 110.412109 L 195.729980 111.335938 Z " fill="rgb(0, 0, 0)" fill-opacity="1.000000" />
<path d="M 195.892578 111.335938 L 195.892578 110.412109 L 202.729980 110.412109 L 202.729980 111.335938 Z " fill="rgb(0, 0, 0)" fill-opacity="1.000000" />
<path d="M 202.892578 111.335938 L 202.892578 110.412109 L 209.729980 110.412109 L 209.729980 111.335938 Z " fill="rgb(0, 0, 0)" fill-opacity="1.000000" />
<path d="M 209.892578 111.335938 L 209.892578 110.412109 L 216.729980 110.412109 L 216.729980 111.335938 Z " fill="rgb(0, 0, 0)" fill-opacity="1.000000" />
<path d="M 216.892578 111.335938 L 216.892578 110.412109 L 223.729980 110.412109 L 223.729980 111.335938 Z " fill="rgb(0, 0, 0)" fill-opacity="1.000000" />
<path d="M 223.892578 111.335938 L 223.892578 110.412109 L 230.729980 110.412109 L 230.729980 111.335938 Z " fill="rgb(0, 0, 0)" fill-opacity="1.000000" />
<path d="M 230.892578 111.335938 L 230.892578 110.412109 L 237.729980 110.412109 L 237.729980 111.335938 Z " fill="rgb(0, 0, 0)" fill-opacity="1.000000" />
<path d="M 237.892578 111.335938 L 237.892578 110.412109 L 244.729980 110.412109 L 244.729980 111.335938 Z " fill="rgb(0, 0, 0)" fill-opacity="1.000000" />
<path d="M 244.892578 111.335938 L 244.892578 110.412109 L 251.729980 110.412109 L 251.729980 111.335938 Z " fill="rgb(0, 0, 0)" fill-opacity="1.000000" />
<path d="M 251.892578 111.335938 L 251.892578 110.412109 L 258.729980 110.412109 L 258.729980 111.335938 Z " fill="rgb(0, 0, 0)" fill-opacity="1.000000" />
<path d="M 258.892578 111.335938 L 258.892578 110.412109 L 265.729980 110.412109 L 265.729980 111.335938 Z " fill="rgb(0, 0, 0)" fill-opacity="1.000000" />
<path d="M 265.892578 111.335938 L 265.892578 110.412109 L 272.729980 110.412109 L 272.729980 111.335938 Z " fill="rgb(0, 0, 0)" fill-opacity="1.000000" />
<path d="M 272.892578 111.335938 L 272.892578 110.412109 L 279.729980 110.412109 L 279.729980 111.335938 Z " fill="rgb(0, 0, 0)" fill-opacity="1.000000" />
<path d="M 279.892578 111.335938 L 279.892578 110.412109 L 286.729980 110.412109 L 286.729980 111.335938 Z " fill="rgb(0, 0, 0)" fill-opacity="1.000000" />
<path d="M 286.892578 111.335938 L 286.892578 110.412109 L 293.729980 110.412109 L 293.729980 111.335938 Z " fill="rgb(0, 0, 0)" fill-opacity="1.000000" />
<path d="M 296.878906 117.319336 L 296.878906 111.335938 L 293.892578 111.335938 L 293.892578 110.412109 L 297.738281 110.412109 L 297.738281 117.319336 Z " fill="rgb(0, 0, 0)" fill-opacity="1.000000" />
<path d="M 65.878906 91.319336 L 65.878906 84.412109 L 69.729980 84.412109 L 69.729980 85.335938 L 66.738281 85.335938 L 66.738281 91.319336 Z " fill="rgb(0, 0, 0)" fill-opacity="1.000000" />
<path d="M 65.878906 104.319336 L 65.878906 90.300781 L 66.738281 90.300781 L 66.738281 104.319336 Z " fill="rgb(0, 0, 0)" fill-opacity="1.000000" />
<path d="M 241.308594 101.418945 L 238.032227 94.866211 L 244.590332 94.866211 Z " fill="rgb(0, 0, 0)" fill-opacity="1.000000" />
<path d="M 69.892578 85.335938 L 69.892578 84.412109 L 76.729980 84.412109 L 76.729980 85.335938 Z " fill="rgb(0, 0, 0)" fill-opacity="1.000000" />
<path d="M 76.892578 85.335938 L 76.892578 84.412109 L 83.729980 84.412109 L 83.729980 85.335938 Z " fill="rgb(0, 0, 0)" fill-opacity="1.000000" />
<path d="M 83.892578 85.335938 L 83.892578 84.412109 L 90.729980 84.412109 L 90.729980 85.335938 Z " fill="rgb(0, 0, 0)" fill-opacity="1.000000" />
<path d="M 90.892578 85.335938 L 90.892578 84.412109 L 97.729980 84.412109 L 97.729980 85.335938 Z " fill="rgb(0, 0, 0)" fill-opacity="1.000000" />
<path d="M 97.892578 85.335938 L 97.892578 84.412109 L 104.729980 84.412109 L 104.729980 85.335938 Z " fill="rgb(0, 0, 0)" fill-opacity="1.000000" />
<path d="M 104.892578 85.335938 L 104.892578 84.412109 L 111.729980 84.412109 L 111.729980 85.335938 Z " fill="rgb(0, 0, 0)" fill-opacity="1.000000" />
<path d="M 111.892578 85.335938 L 111.892578 84.412109 L 118.729980 84.412109 L 118.729980 85.335938 Z " fill="rgb(0, 0, 0)" fill-opacity="1.000000" />
<path d="M 118.892578 85.335938 L 118.892578 84.412109 L 125.729980 84.412109 L 125.729980 85.335938 Z " fill="rgb(0, 0, 0)" fill-opacity="1.000000" />
<path d="M 125.892578 85.335938 L 125.892578 84.412109 L 132.729980 84.412109 L 132.729980 85.335938 Z " fill="rgb(0, 0, 0)" fill-opacity="1.000000" />
<path d="M 132.892578 85.335938 L 132.892578 84.412109 L 139.729980 84.412109 L 139.729980 85.335938 Z " fill="rgb(0, 0, 0)" fill-opacity="1.000000" />
<path d="M 139.892578 85.335938 L 139.892578 84.412109 L 146.729980 84.412109 L 146.729980 85.335938 Z " fill="rgb(0, 0, 0)" fill-opacity="1.000000" />
<path d="M 146.892578 85.335938 L 146.892578 84.412109 L 153.729980 84.412109 L 153.729980 85.335938 Z " fill="rgb(0, 0, 0)" fill-opacity="1.000000" />
<path d="M 153.892578 85.335938 L 153.892578 84.412109 L 156.878906 84.412109 L 156.878906 77.300781 L 157.738281 77.300781 L 157.738281 84.412109 L 160.729980 84.412109 L 160.729980 85.335938 Z " fill="rgb(0, 0, 0)" fill-opacity="1.000000" />
<path d="M 160.892578 85.335938 L 160.892578 84.412109 L 167.729980 84.412109 L 167.729980 85.335938 Z " fill="rgb(0, 0, 0)" fill-opacity="1.000000" />
<path d="M 167.892578 85.335938 L 167.892578 84.412109 L 174.729980 84.412109 L 174.729980 85.335938 Z " fill="rgb(0, 0, 0)" fill-opacity="1.000000" />
<path d="M 174.892578 85.335938 L 174.892578 84.412109 L 181.729980 84.412109 L 181.729980 85.335938 Z " fill="rgb(0, 0, 0)" fill-opacity="1.000000" />
<path d="M 181.892578 85.335938 L 181.892578 84.412109 L 188.729980 84.412109 L 188.729980 85.335938 Z " fill="rgb(0, 0, 0)" fill-opacity="1.000000" />
<path d="M 188.892578 85.335938 L 188.892578 84.412109 L 195.729980 84.412109 L 195.729980 85.335938 Z " fill="rgb(0, 0, 0)" fill-opacity="1.000000" />
<path d="M 195.892578 85.335938 L 195.892578 84.412109 L 202.729980 84.412109 L 202.729980 85.335938 Z " fill="rgb(0, 0, 0)" fill-opacity="1.000000" />
<path d="M 202.892578 85.335938 L 202.892578 84.412109 L 209.729980 84.412109 L 209.729980 85.335938 Z " fill="rgb(0, 0, 0)" fill-opacity="1.000000" />
<path d="M 209.892578 85.335938 L 209.892578 84.412109 L 216.729980 84.412109 L 216.729980 85.335938 Z " fill="rgb(0, 0, 0)" fill-opacity="1.000000" />
<path d="M 216.892578 85.335938 L 216.892578 84.412109 L 223.729980 84.412109 L 223.729980 85.335938 Z " fill="rgb(0, 0, 0)" fill-opacity="1.000000" />
<path d="M 223.892578 85.335938 L 223.892578 84.412109 L 230.729980 84.412109 L 230.729980 85.335938 Z " fill="rgb(0, 0, 0)" fill-opacity="1.000000" />
<path d="M 230.892578 85.335938 L 230.892578 84.412109 L 237.729980 84.412109 L 237.729980 85.335938 Z " fill="rgb(0, 0, 0)" fill-opacity="1.000000" />
<path d="M 240.878906 91.319336 L 240.878906 85.335938 L 237.892578 85.335938 L 237.892578 84.412109 L 241.738281 84.412109 L 241.738281 91.319336 Z " fill="rgb(0, 0, 0)" fill-opacity="1.000000" />
<path d="M 100.878906 13.319336 L 100.878906 6.412109 L 104.729980 6.412109 L 104.729980 7.335938 L 101.738281 7.335938 L 101.738281 13.319336 Z " fill="rgb(0, 0, 0)" fill-opacity="1.000000" />
<path d="M 100.878906 26.319336 L 100.878906 12.300781 L 101.738281 12.300781 L 101.738281 26.319336 Z " fill="rgb(0, 0, 0)" fill-opacity="1.000000" />
<path d="M 100.878906 39.319336 L 100.878906 25.300781 L 101.738281 25.300781 L 101.738281 39.319336 Z " fill="rgb(0, 0, 0)" fill-opacity="1.000000" />
<path d="M 100.878906 52.319336 L 100.878906 38.300781 L 101.738281 38.300781 L 101.738281 52.319336 Z " fill="rgb(0, 0, 0)" fill-opacity="1.000000" />
<path d="M 100.878906 59.335938 L 100.878906 51.300781 L 101.738281 51.300781 L 101.738281 58.412109 L 104.729980 58.412109 L 104.729980 59.335938 Z " fill="rgb(0, 0, 0)" fill-opacity="1.000000" />
<path d="M 156.878906 78.319336 L 156.878906 64.300781 L 157.738281 64.300781 L 157.738281 78.319336 Z " fill="rgb(0, 0, 0)" fill-opacity="1.000000" />
<path d="M 104.892578 59.335938 L 104.892578 58.412109 L 111.729980 58.412109 L 111.729980 59.335938 Z " fill="rgb(0, 0, 0)" fill-opacity="1.000000" />
<path d="M 111.892578 59.335938 L 111.892578 58.412109 L 118.729980 58.412109 L 118.729980 59.335938 Z " fill="rgb(0, 0, 0)" fill-opacity="1.000000" />
<path d="M 118.892578 59.335938 L 118.892578 58.412109 L 125.729980 58.412109 L 125.729980 59.335938 Z " fill="rgb(0, 0, 0)" fill-opacity="1.000000" />
<path d="M 125.892578 59.335938 L 125.892578 58.412109 L 132.729980 58.412109 L 132.729980 59.335938 Z " fill="rgb(0, 0, 0)" fill-opacity="1.000000" />
<path d="M 132.892578 59.335938 L 132.892578 58.412109 L 139.729980 58.412109 L 139.729980 59.335938 Z " fill="rgb(0, 0, 0)" fill-opacity="1.000000" />
<path d="M 139.892578 59.335938 L 139.892578 58.412109 L 146.729980 58.412109 L 146.729980 59.335938 Z " fill="rgb(0, 0, 0)" fill-opacity="1.000000" />
<path d="M 146.892578 59.335938 L 146.892578 58.412109 L 153.729980 58.412109 L 153.729980 59.335938 Z " fill="rgb(0, 0, 0)" fill-opacity="1.000000" />
<path d="M 153.892578 59.335938 L 153.892578 58.412109 L 160.729980 58.412109 L 160.729980 59.335938 Z " fill="rgb(0, 0, 0)" fill-opacity="1.000000" />
<path d="M 160.892578 59.335938 L 160.892578 58.412109 L 167.729980 58.412109 L 167.729980 59.335938 Z " fill="rgb(0, 0, 0)" fill-opacity="1.000000" />
<path d="M 167.892578 59.335938 L 167.892578 58.412109 L 174.729980 58.412109 L 174.729980 59.335938 Z " fill="rgb(0, 0, 0)" fill-opacity="1.000000" />
<path d="M 174.892578 59.335938 L 174.892578 58.412109 L 181.729980 58.412109 L 181.729980 59.335938 Z " fill="rgb(0, 0, 0)" fill-opacity="1.000000" />
<path d="M 181.892578 59.335938 L 181.892578 58.412109 L 188.729980 58.412109 L 188.729980 59.335938 Z " fill="rgb(0, 0, 0)" fill-opacity="1.000000" />
<path d="M 188.892578 59.335938 L 188.892578 58.412109 L 195.729980 58.412109 L 195.729980 59.335938 Z " fill="rgb(0, 0, 0)" fill-opacity="1.000000" />
<path d="M 195.892578 59.335938 L 195.892578 58.412109 L 202.729980 58.412109 L 202.729980 59.335938 Z " fill="rgb(0, 0, 0)" fill-opacity="1.000000" />
<path d="M 202.892578 59.335938 L 202.892578 58.412109 L 209.729980 58.412109 L 209.729980 59.335938 Z " fill="rgb(0, 0, 0)" fill-opacity="1.000000" />
<path d="M 209.892578 59.335938 L 209.892578 58.412109 L 216.729980 58.412109 L 216.729980 59.335938 Z " fill="rgb(0, 0, 0)" fill-opacity="1.000000" />
<path d="M 216.892578 59.335938 L 216.892578 58.412109 L 219.878906 58.412109 L 219.878906 51.300781 L 220.738281 51.300781 L 220.738281 59.335938 Z " fill="rgb(0, 0, 0)" fill-opacity="1.000000" />
<path d="M 150.308594 28.937012 L 149.164551 33.040527 L 151.452637 33.040527 Z M 149.653320 27.980957 L 150.969238 27.980957 L 153.423828 36.000000 L 152.301270 36.000000 L 151.710449 33.910645 L 148.901367 33.910645 L 148.321289 36.000000 L 147.198730 36.000000 Z " fill="rgb(0, 0, 0)" fill-opacity="1.000000" />
<path d="M 219.878906 52.319336 L 219.878906 38.300781 L 220.738281 38.300781 L 220.738281 52.319336 Z " fill="rgb(0, 0, 0)" fill-opacity="1.000000" />
<path d="M 156.014160 35.242676 L 156.014160 38.288086 L 155.020508 38.288086 L 155.020508 29.984375 L 156.014160 29.984375 L 156.014160 30.752441 Q 156.261230 30.306641 156.672119 30.072998 Q 157.083008 29.839355 157.620117 29.839355 Q 158.710449 29.839355 159.330811 30.682617 Q 159.951172 31.525879 159.951172 33.019043 Q 159.951172 34.485352 159.328125 35.320557 Q 158.705078 36.155762 157.620117 36.155762 Q 157.072266 36.155762 156.661377 35.922119 Q 156.250488 35.688477 156.014160 35.242676 Z M 158.914551 32.997559 Q 158.914551 31.848145 158.552002 31.262695 Q 158.189453 30.677246 157.475098 30.677246 Q 156.755371 30.677246 156.384766 31.265381 Q 156.014160 31.853516 156.014160 32.997559 Q 156.014160 34.136230 156.384766 34.727051 Q 156.755371 35.317871 157.475098 35.317871 Q 158.189453 35.317871 158.552002 34.732422 Q 158.914551 34.146973 158.914551 32.997559 Z " fill="rgb(0, 0, 0)" fill-opacity="1.000000" />
<path d="M 163.014160 35.242676 L 163.014160 38.288086 L 162.020508 38.288086 L 162.020508 29.984375 L 163.014160 29.984375 L 163.014160 30.752441 Q 163.261230 30.306641 163.672119 30.072998 Q 164.083008 29.839355 164.620117 29.839355 Q 165.710449 29.839355 166.330811 30.682617 Q 166.951172 31.525879 166.951172 33.019043 Q 166.951172 34.485352 166.328125 35.320557 Q 165.705078 36.155762 164.620117 36.155762 Q 164.072266 36.155762 163.661377 35.922119 Q 163.250488 35.688477 163.014160 35.242676 Z M 165.914551 32.997559 Q 165.914551 31.848145 165.552002 31.262695 Q 165.189453 30.677246 164.475098 30.677246 Q 163.755371 30.677246 163.384766 31.265381 Q 163.014160 31.853516 163.014160 32.997559 Q 163.014160 34.136230 163.384766 34.727051 Q 163.755371 35.317871 164.475098 35.317871 Q 165.189453 35.317871 165.552002 34.732422 Q 165.914551 34.146973 165.914551 32.997559 Z " fill="rgb(0, 0, 0)" fill-opacity="1.000000" />
<path d="M 219.878906 39.319336 L 219.878906 25.300781 L 220.738281 25.300781 L 220.738281 39.319336 Z " fill="rgb(0, 0, 0)" fill-opacity="1.000000" />
<path d="M 219.878906 26.319336 L 219.878906 12.300781 L 220.738281 12.300781 L 220.738281 26.319336 Z " fill="rgb(0, 0, 0)" fill-opacity="1.000000" />
<path d="M 104.892578 7.335938 L 104.892578 6.412109 L 111.729980 6.412109 L 111.729980 7.335938 Z " fill="rgb(0, 0, 0)" fill-opacity="1.000000" />
<path d="M 111.892578 7.335938 L 111.892578 6.412109 L 118.729980 6.412109 L 118.729980 7.335938 Z " fill="rgb(0, 0, 0)" fill-opacity="1.000000" />
<path d="M 118.892578 7.335938 L 118.892578 6.412109 L 125.729980 6.412109 L 125.729980 7.335938 Z " fill="rgb(0, 0, 0)" fill-opacity="1.000000" />
<path d="M 125.892578 7.335938 L 125.892578 6.412109 L 132.729980 6.412109 L 132.729980 7.335938 Z " fill="rgb(0, 0, 0)" fill-opacity="1.000000" />
<path d="M 132.892578 7.335938 L 132.892578 6.412109 L 139.729980 6.412109 L 139.729980 7.335938 Z " fill="rgb(0, 0, 0)" fill-opacity="1.000000" />
<path d="M 139.892578 7.335938 L 139.892578 6.412109 L 146.729980 6.412109 L 146.729980 7.335938 Z " fill="rgb(0, 0, 0)" fill-opacity="1.000000" />
<path d="M 146.892578 7.335938 L 146.892578 6.412109 L 153.729980 6.412109 L 153.729980 7.335938 Z " fill="rgb(0, 0, 0)" fill-opacity="1.000000" />
<path d="M 153.892578 7.335938 L 153.892578 6.412109 L 160.729980 6.412109 L 160.729980 7.335938 Z " fill="rgb(0, 0, 0)" fill-opacity="1.000000" />
<path d="M 160.892578 7.335938 L 160.892578 6.412109 L 167.729980 6.412109 L 167.729980 7.335938 Z " fill="rgb(0, 0, 0)" fill-opacity="1.000000" />
<path d="M 167.892578 7.335938 L 167.892578 6.412109 L 174.729980 6.412109 L 174.729980 7.335938 Z " fill="rgb(0, 0, 0)" fill-opacity="1.000000" />
<path d="M 174.892578 7.335938 L 174.892578 6.412109 L 181.729980 6.412109 L 181.729980 7.335938 Z " fill="rgb(0, 0, 0)" fill-opacity="1.000000" />
<path d="M 181.892578 7.335938 L 181.892578 6.412109 L 188.729980 6.412109 L 188.729980 7.335938 Z " fill="rgb(0, 0, 0)" fill-opacity="1.000000" />
<path d="M 188.892578 7.335938 L 188.892578 6.412109 L 195.729980 6.412109 L 195.729980 7.335938 Z " fill="rgb(0, 0, 0)" fill-opacity="1.000000" />
<path d="M 195.892578 7.335938 L 195.892578 6.412109 L 202.729980 6.412109 L 202.729980 7.335938 Z " fill="rgb(0, 0, 0)" fill-opacity="1.000000" />
<path d="M 202.892578 7.335938 L 202.892578 6.412109 L 209.729980 6.412109 L 209.729980 7.335938 Z " fill="rgb(0, 0, 0)" fill-opacity="1.000000" />
<path d="M 209.892578 7.335938 L 209.892578 6.412109 L 216.729980 6.412109 L 216.729980 7.335938 Z " fill="rgb(0, 0, 0)" fill-opacity="1.000000" />
<path d="M 219.878906 13.319336 L 219.878906 7.335938 L 216.892578 7.335938 L 216.892578 6.412109 L 220.738281 6.412109 L 220.738281 13.319336 Z " fill="rgb(0, 0, 0)" fill-opacity="1.000000" />
</svg>